<svg xmlns="http://www.w3.org/2000/svg" width="552.052" height="443.052" viewBox="0 0 552.052 443.052">
  <g id="Group_5" data-name="Group 5" transform="translate(-1204 -292.486)">
    <g id="submarine-svgrepo-com" transform="translate(1204 404.062) rotate(-13)">
      <path id="Path_1" data-name="Path 1" d="M252,275.156c-12,0-22.4-10.4-22.4-22.4v-129.6c0-12,10.4-22.4,22.4-22.4h49.6v27.2H256v124.8a5.162,5.162,0,0,0-4.8-4.8v27.2Z" transform="translate(0 -95.156)" fill="#89867c"/>
      <g id="Group_1" data-name="Group 1" transform="translate(0 -95.156)">
        <path id="Path_2" data-name="Path 2" d="M252,127.956c-12,0-22.4,10.4-22.4,22.4v102.4c0,12,10.4,22.4,22.4,22.4v-27.2a5.162,5.162,0,0,1,4.8,4.8v-124.8H252Z" fill="#6d6b64"/>
        <path id="Path_3" data-name="Path 3" d="M304.8,130.356a5.162,5.162,0,0,1-4.8,4.8h0a5.162,5.162,0,0,1-4.8-4.8v-30.4a5.162,5.162,0,0,1,4.8-4.8h0a5.162,5.162,0,0,1,4.8,4.8Z" fill="#6d6b64"/>
      </g>
      <path id="Path_4" data-name="Path 4" d="M320.8,235.156a5.468,5.468,0,0,1-5.6,5.6h-132a5.468,5.468,0,0,1-5.6-5.6l12-49.6a5.468,5.468,0,0,1,5.6-5.6H296.8a5.468,5.468,0,0,1,5.6,5.6Z" transform="translate(0 -95.156)" fill="#ffae0b"/>
      <path id="Path_5" data-name="Path 5" d="M357.6,283.956a8.878,8.878,0,0,1-8.8,8.8h-200a8.878,8.878,0,0,1-8.8-8.8l17.6-75.2a8.878,8.878,0,0,1,8.8-8.8H321.6a8.878,8.878,0,0,1,8.8,8.8Z" transform="translate(0 -95.156)" fill="#ffd00d"/>
      <path id="Path_6" data-name="Path 6" d="M357.6,288.756a8.878,8.878,0,0,1-8.8,8.8h-200a8.878,8.878,0,0,1-8.8-8.8l17.6-75.2a8.878,8.878,0,0,1,8.8-8.8H321.6a8.878,8.878,0,0,1,8.8,8.8Z" transform="translate(0 -95.156)" fill="#ffae0b"/>
      <g id="Group_2" data-name="Group 2" transform="translate(0 -95.156)">
        <path id="Path_7" data-name="Path 7" d="M71.2,371.156c0,5.6-1.6,10.4-4,10.4-1.6,0-7.2-9.6-7.2-15.2s5.6-4.8,7.2-4.8C69.6,361.556,71.2,365.556,71.2,371.156Z" fill="#7a8487"/>
        <path id="Path_8" data-name="Path 8" d="M60,391.156c0-5.6,1.6-10.4,4-10.4,1.6,0,7.2,9.6,7.2,15.2s-5.6,4.8-7.2,4.8C61.6,401.556,60,396.756,60,391.156Z" fill="#7a8487"/>
      </g>
      <path id="Path_9" data-name="Path 9" d="M143.2,381.556a3.441,3.441,0,0,1-3.2,3.2H68.8a3.441,3.441,0,0,1-3.2-3.2h0a3.441,3.441,0,0,1,3.2-3.2H140a2.93,2.93,0,0,1,3.2,3.2Z" transform="translate(0 -95.156)" fill="#596568"/>
      <path id="Path_10" data-name="Path 10" d="M314.4,390.356a8.878,8.878,0,0,1-8.8,8.8h-188a8.878,8.878,0,0,1-8.8-8.8v-20a8.878,8.878,0,0,1,8.8-8.8h188a8.878,8.878,0,0,1,8.8,8.8Z" transform="translate(0 -95.156)" fill="#7a8487"/>
      <path id="Path_11" data-name="Path 11" d="M325.6,390.356a8.878,8.878,0,0,1-8.8,8.8h-188a8.878,8.878,0,0,1-8.8-8.8v-20a8.878,8.878,0,0,1,8.8-8.8h188a8.878,8.878,0,0,1,8.8,8.8v20Z" transform="translate(0 -95.156)" fill="#596568"/>
      <path id="Path_12" data-name="Path 12" d="M70.4,285.556c0,20-38.4,36.8-49.6,36.8S0,305.556,0,285.556s2.4-43.2,13.6-43.2C25.6,242.356,70.4,265.556,70.4,285.556Z" transform="translate(0 -95.156)" fill="#ffd00d"/>
      <path id="Path_13" data-name="Path 13" d="M54.4,285.556c0,20-21.6,36.8-33.6,36.8S0,305.556,0,285.556s2.4-43.2,13.6-43.2C25.6,242.356,54.4,265.556,54.4,285.556Z" transform="translate(0 -95.156)" fill="#ffae0b"/>
      <path id="Path_14" data-name="Path 14" d="M496,315.156c0,37.6-39.2,84.8-176,84.8-136,0-318.4-47.2-318.4-84.8s110.4-68,247.2-68S496,277.556,496,315.156Z" transform="translate(0 -95.156)" fill="#ffd00d"/>
      <path id="Path_15" data-name="Path 15" d="M496,315.156c0,37.6-39.2,84.8-176,84.8-136,0-318.4-47.2-318.4-84.8s129.6-54.4,265.6-54.4C404,260.756,496,277.556,496,315.156Z" transform="translate(0 -95.156)" fill="#ffae0b"/>
      <path id="Path_16" data-name="Path 16" d="M496,315.156c0,37.6-39.2,84.8-176,84.8-136,0-318.4-47.2-318.4-84.8" transform="translate(0 -95.156)" fill="#ff860d"/>
      <path id="Path_17" data-name="Path 17" d="M162.4,354.356c-12,0-21.6-19.2-21.6-31.2a21.6,21.6,0,1,1,43.2,0C184,335.156,174.4,354.356,162.4,354.356Z" transform="translate(0 -95.156)" fill="#e56a0e"/>
      <path id="Path_18" data-name="Path 18" d="M162.4,345.556a21.6,21.6,0,1,1,21.6-21.6A21.51,21.51,0,0,1,162.4,345.556Z" transform="translate(0 -95.156)" fill="#77acbf"/>
      <path id="Path_19" data-name="Path 19" d="M162.4,303.956a20,20,0,1,1-20,20,20.32,20.32,0,0,1,20-20m0-4.8a24,24,0,1,0,24,24,24.068,24.068,0,0,0-24-24Z" transform="translate(0 -95.156)" fill="#e8d918"/>
      <path id="Path_20" data-name="Path 20" d="M142.4,323.156a20,20,0,0,0,40,0,23.668,23.668,0,0,0-1.6-8h-36A15.436,15.436,0,0,0,142.4,323.156Z" transform="translate(0 -95.156)" fill="#539aad"/>
      <path id="Path_21" data-name="Path 21" d="M248.8,354.356c-12,0-21.6-19.2-21.6-31.2a21.6,21.6,0,1,1,43.2,0C270.4,335.156,260.8,354.356,248.8,354.356Z" transform="translate(0 -95.156)" fill="#e56a0e"/>
      <path id="Path_22" data-name="Path 22" d="M248.8,345.556a21.6,21.6,0,1,1,21.6-21.6A21.51,21.51,0,0,1,248.8,345.556Z" transform="translate(0 -95.156)" fill="#77acbf"/>
      <path id="Path_23" data-name="Path 23" d="M248.8,303.956a20,20,0,1,1-20,20,20.32,20.32,0,0,1,20-20m0-4.8a24,24,0,1,0,24,24,24.068,24.068,0,0,0-24-24Z" transform="translate(0 -95.156)" fill="#e8d918"/>
      <path id="Path_24" data-name="Path 24" d="M228.8,323.156a20,20,0,1,0,40,0,23.667,23.667,0,0,0-1.6-8h-36A15.436,15.436,0,0,0,228.8,323.156Z" transform="translate(0 -95.156)" fill="#539aad"/>
      <path id="Path_25" data-name="Path 25" d="M335.2,354.356c-12,0-21.6-19.2-21.6-31.2a21.6,21.6,0,1,1,43.2,0C356.8,335.156,347.2,354.356,335.2,354.356Z" transform="translate(0 -95.156)" fill="#e56a0e"/>
      <path id="Path_26" data-name="Path 26" d="M335.2,345.556a21.6,21.6,0,1,1,21.6-21.6A21.51,21.51,0,0,1,335.2,345.556Z" transform="translate(0 -95.156)" fill="#77acbf"/>
      <path id="Path_27" data-name="Path 27" d="M335.2,303.956a20,20,0,1,1-20,20,20.32,20.32,0,0,1,20-20m0-4.8a24,24,0,1,0,24,24,24.068,24.068,0,0,0-24-24Z" transform="translate(0 -95.156)" fill="#e8d918"/>
      <path id="Path_28" data-name="Path 28" d="M315.2,323.156a20,20,0,0,0,40,0,23.667,23.667,0,0,0-1.6-8h-36A15.436,15.436,0,0,0,315.2,323.156Z" transform="translate(0 -95.156)" fill="#539aad"/>
      <path id="Path_29" data-name="Path 29" d="M70.4,381.556a5.162,5.162,0,0,1-4.8,4.8,4.8,4.8,0,1,1,0-9.6A4.611,4.611,0,0,1,70.4,381.556Z" transform="translate(0 -95.156)" fill="#7a8487"/>
    </g>
    <g id="Group_4" data-name="Group 4" transform="translate(1204.186 631.694)">
      <ellipse id="Ellipse_1" data-name="Ellipse 1" cx="5" cy="7" rx="5" ry="7" transform="translate(84.299 2.924) rotate(-17)" fill="rgba(255,255,255,0.43)"/>
      <ellipse id="Ellipse_2" data-name="Ellipse 2" cx="11" cy="16" rx="11" ry="16" transform="matrix(0.485, -0.875, 0.875, 0.485, 13.089, 88.331)" fill="rgba(255,255,255,0.43)"/>
      <ellipse id="Ellipse_3" data-name="Ellipse 3" cx="15" cy="11" rx="15" ry="11" transform="translate(32.606 47.344) rotate(-17)" fill="rgba(255,255,255,0.43)"/>
      <ellipse id="Ellipse_4" data-name="Ellipse 4" cx="10" cy="10.5" rx="10" ry="10.5" transform="translate(91.227 33.282) rotate(-17)" fill="rgba(255,255,255,0.43)"/>
      <ellipse id="Ellipse_5" data-name="Ellipse 5" cx="12.5" cy="8" rx="12.5" ry="8" transform="translate(32.889 12.255) rotate(-17)" fill="rgba(255,255,255,0.43)"/>
      <ellipse id="Ellipse_6" data-name="Ellipse 6" cx="15.5" cy="10.5" rx="15.5" ry="10.5" transform="translate(0 34.599) rotate(-17)" fill="rgba(255,255,255,0.43)"/>
    </g>
  </g>
</svg>
